<svg version="1.2" xmlns="http://www.w3.org/2000/svg" viewBox="0 0 226 69" width="226" height="69"><style></style><path fill-rule="evenodd" d="m198.5 5.6l-7.2 0.2v7.5l7.3-0.5zm4.5 15h-16.3l0.1 7.9 15.5-0.1zm5.1 47.3c-4.4-11.8-5-34.4-5-34.4l-15.7 0.1c-0.1 9.4-5.2 34.8-5.2 34.8l25.8-0.2z"/><path  d="m0.7 0.6h47.9v14.1h-47.9"/><path  d="m1 7h14v21h-14z"/><path  d="m35 5h13v22h-13z"/><path  d="m0.7 68.4h14.7v-19.7h6.5v19.7h26.7v-14.4h-13.5v-5.3h13.5v-34h-13.5v19.9h-19.7v-19.9h-14.7"/><path  d="m56 0.6v67.8h47v-67.8h-13.5v53.4h-19.4v-53.4z"/><path  d="m157 0.6h-46.7v39.5h32.9v13.9h-32.9v14.4h46.7v-42.8h-32.8v-10.9h32.8z"/><path  d="m208.1 3.6l0.1 9.8h-4.8v-9.7z"/><path fill-rule="evenodd" d="m225.2 0.7l0.1 15.5c0 0-8.7-3.1-14.4-3.2v-9.4c0 0 7-0.4 14.1-3z"/><path  d="m181.6 13.4v-9.8l4.7-0.1v9.8z"/><path fill-rule="evenodd" d="m164.5 16.2l-0.1-15.5c0 0 8.7 3.1 14.4 3.2v9.4c0 0-7 0.4-14.1 3z"/></svg>