<svg version="1.2" xmlns="http://www.w3.org/2000/svg" viewBox="0 0 218 169" width="218" height="169"><style>.a{fill:#c5412b}</style><path fill-rule="evenodd" class="a" d="m216.6 140.3c-18.8 14-37.1 22.6-55 28.2-4.4-6.1-8.4-12.6-11.8-19.4q9.8-3.8 18.6-9c-1.5-1.2-3-2.5-4.5-3.7-35.4 16.7-74.2 16.7-110 0-1.5 1.3-3 2.5-4.5 3.7 5.8 3.5 12 6.5 18.5 9-3.4 6.8-7.3 13.4-11.7 19.4-18-5.5-36.1-14.1-55-28.1-3.8-41.3 3.8-83.1 32.2-126 14.1-6.5 29.2-11.4 44.9-14.1 2 3.5 4.3 8.2 5.8 11.9 16.5-2.5 33-2.5 49.8 0 1.5-3.7 3.8-8.4 5.7-11.9 15.8 2.7 30.8 7.5 44.9 14.1 24.5 36.8 36.8 78.3 32.1 125.9zm-132.8-95l-0.1-14.9c-9-0.1-22.7-5-22.7-5l0.1 24.6 0.3 0.1c11.2-4.2 22.3-4.8 22.4-4.8zm19-0.1l11.5-0.8-0.1-11.3-11.3 0.4zm18.5 11.5h-25.8l0.2 12.5 24.5-0.1 1.1-12.3zm-33.2-11.1l7.4-0.2v-15.4l-7.5 0.1zm41.4 86c-7.1-18.7-8-54.3-8-54.3l-24.8 0.1c-0.2 14.8-8.2 54.8-8.2 54.8l40.7-0.3zm0.5-86.1l-0.1-15.5-7.4 0.2v15.4zm26.9 4.5l-0.1-24.5-0.3-0.2c-11.2 4.2-22.3 4.8-22.3 4.8l0.1 14.9c9 0.2 22.7 5.1 22.6 5z"/></svg>