<?xml version="1.0" encoding="UTF-8"?><svg id="Calque_1" xmlns="http://www.w3.org/2000/svg" width="98.74" height="69.68" viewBox="0 0 98.74 69.68"><defs><style>.cls-1{fill:#ad3921;}.cls-1,.cls-2,.cls-3,.cls-4,.cls-5,.cls-6,.cls-7{stroke-width:0px;}.cls-2{fill:#313334;}.cls-3{fill:#161211;}.cls-4{fill:#f6eae0;}.cls-5{fill:#bf3f27;}.cls-6{fill:#ededed;}.cls-8{fill:none;stroke:#161211;stroke-miterlimit:10;}.cls-7{fill:#ce422b;}</style></defs><path class="cls-4" d="M14.49,60.77l2.45,2.32c-.6-.25-2.34-2.2-2.45-2.32Z"/><path class="cls-4" d="M80.58,62.65l3.54-3.02c-.3.27-2.76,2.45-3.54,3.02Z"/><path class="cls-4" d="M88.29,33.63c.55,1.79,1.1,3.56,1.29,5.43.19.26,3.91-.12,5.17,3.1.74,1.89.65,9.18-.52,10.99-1.34,2.06-3.87,2.42-5.95,1.29-.17,1.97-.1,3.67-1.9,5.69-.11.12-.2.27-.32.38-.24.23-.64.81-1.62,1.41-.1-.75-.2-1.52-.29-2.31,0,0,0,0-.02.02-.18.13-1.63,1.07-9.64,4.17-8.7,3.37-22.4,3.24-22.9,3.1-.5-.14-11.74.79-21.9-.43-10-1.2-15.03-5.56-15.19-5.7h0s0,0,0,0h0c-.28.3-.47.95-.6,1.76-.49-.55-.9-1.13-1.21-1.77-1.54-1.76-2.31-3.97-2.84-6.2-2.25,1.26-5.24-.25-5.82-2.71-.23-.99-.22-8.02,0-9.05.42-1.95,2.39-3.56,4.39-3.49.29-1.9.68-3.77,1.42-5.56C-2.39,30.6-3.16,11.52,7.18,4.36c8.85-6.13,17.84.22,23.01,7.75,5.85-2.51,12.26-3.66,18.61-3.62.54-.22,1.75-7.68,7.24-8.4,5.12-.67,13.19,2.57,17.19,5.95,12.17-11.74,28.17,2.66,25.14,17-.92,4.34-5.11,10.6-10.08,10.6Z"/><path class="cls-3" d="M86.09,31.17c1.42,3.08,2.23,6.45,2.58,9.82,1.91-.91,4.37.27,4.91,2.33.16.63.24,6.42.13,7.11-.45,2.82-3.82,4.41-5.88,2-.75,2.61-1.54,4.82-3.36,6.85,0,0-.31.28-.32.29-.4.24-1.65,1.12-9.67,4.22-8.7,3.37-22.4,3.24-22.9,3.1-.5-.14-11.74.79-21.9-.43-10-1.2-15.03-5.56-15.19-5.7h0s0,0,0,0h0c-2.22-2.17-3.23-5.21-4.01-8.14-1.4,1.01-3.34,1.53-4.52-.13-.89-1.25-.89-8.14-.39-9.56.97-2.73,3.97-1.95,4.14-2.33.27-3.36,1.1-6.77,2.84-9.69-.25-.46-2.8,2.72-6.78-.71C-.48,24.82-.1,11.98,7.57,6.03c8.94-6.92,16.7.23,21.97,7.63,6.36-2.78,13.38-3.87,20.29-3.88,1.81-3.07,2.91-7.99,7.11-8.53,4.89-.64,12.63,3.05,15.9,6.85,5.8-5.3,11.57-7.42,18.22-1.94,4.35,3.58,6.78,9.47,6.14,15.06-.54,4.69-5.4,13.33-11.12,9.95Z"/><path class="cls-5" d="M82.6,55.02c-1.33,2.99-5.4,5.22-8.47,6.07-11.03,3.08-41.67,4.1-52.09,0-2.87-1.13-5.33-3.09-6.79-5.82,2.6.55,1.09-.24.26-3.3-1.32-4.81-1.62-10.58-.52-15.44,1.01-4.46,3.76-8.7,7.5-11.37,3.63-2.6,8.1-3.84,12.28-5.23-9.11,4.17-16.64,15.42-14.09,25.59,1.96,7.79,11.52,14.2,19.06,15.57,6.26,1.14,27.48.98,33.47-.65,2.92-.79,7.43-3.08,9.37-5.43Z"/><path class="cls-5" d="M91.39,11.46l-4.39,2.58c-1.79-2.46-4.87-4.87-7.63-6.14,3.88-3.87,9.52-.12,12.02,3.55Z"/><path class="cls-1" d="M93.71,18.44c.12,4.27-1.25,8.11-5.23,10.08,1.43-3.42,1.63-6.76.58-10.34,1.56.08,3.16-.21,4.65.26Z"/><path class="cls-7" d="M93.71,18.44c-1.5-.47-3.1-.18-4.65-.26-.44-1.5-1.15-2.87-2.07-4.14l4.39-2.58c1.44,2.12,2.25,4.41,2.33,6.98Z"/><path class="cls-6" d="M15,36.54c-1.1,4.86-.8,10.64.52,15.44.84,3.06,2.34,3.84-.26,3.3-3.11-5.84-2.73-12.92-1.03-19.13l.78.39Z"/><path class="cls-6" d="M22.5,25.16c-3.73,2.67-6.48,6.92-7.5,11.37l-.78-.39c1.25-4.55,3.2-8.37,6.33-11.89,1.99.68.76.43.78.84.04,1.09.66-.58,1.16.06Z"/><path class="cls-5" d="M85.44,19.99s.26.12.65-.65c1.79,5.06-.58,8.22-1.74,7.88-.86-.25-3.48-8.47-12.6-12.08.1-.43.78-.93.9-1.1,4.38,1.62,8.02,4,10.53,8.01.85-.59,1.53-1.35,2.26-2.07Z"/><path class="cls-4" d="M85.44,19.99c-.74.71-1.41,1.47-2.26,2.07-2.51-4.01-6.16-6.39-10.53-8.01,1.07-1.46,2.16-2.9,3.49-4.14,1.19,1.4,3.07,2.31,4.59,3.62,1.78,1.53,4.21,4.16,4.72,6.46Z"/><path class="cls-4" d="M86.09,19.35c-.39.76-.61.61-.65.65-.51-2.3-2.94-4.93-4.72-6.46-1.51-1.31-3.4-2.22-4.59-3.62,3.91,1.35,8.56,5.52,9.95,9.43Z"/><path class="cls-1" d="M9.06,18.18c-.8,3.48.18,6.88,1.1,10.21-3.95-.93-5.64-5.46-5.62-9.11,0-.05.25-.17.26-.32,1.39-.38,2.82-.82,4.27-.78Z"/><path class="cls-7" d="M12.81,12.11c-1.47,1.49-3.28,4.03-3.75,6.07-1.44-.05-2.87.39-4.27.78.15-3.48.79-5.5,2.97-8.27l5.04,1.42Z"/><path class="cls-5" d="M12.81,12.11l-5.04-1.42c2.66-3.37,6.85-5.86,10.73-2.65-2.06,1.13-4.03,2.39-5.69,4.07Z"/><path class="cls-4" d="M25.73,14.31c-3.09,1.84-6.27,3.71-8.53,6.59-.28-.07-2.38-3.2-3.88-4.27,1.75-3.05,5.36-5.74,8.72-6.59.27.07,3.38,3.76,3.68,4.27Z"/><path class="cls-5" d="M17.2,20.9c.77.19,1.19-.36,1.81-.65-3.62,3.47-4.5,5.99-4.78,6.27-.66.65-1.75-1.52-1.94-2.07-.95-2.73-.36-5.39,1.03-7.82,1.49,1.07,3.6,4.2,3.88,4.27Z"/><path class="cls-5" d="M19.01,20.25c-.61.29-1.04.83-1.81.65,2.26-2.88,5.44-4.75,8.53-6.59.1.17.54.74.45.9-2.61,1.32-5.06,3.01-7.17,5.04Z"/><path class="cls-2" d="M90.81,42.61c.13-.03.56.37.58.45.12.38.11,7.63,0,8.01-.14.48-.76.57-.9.13-.13-.39-.13-7.88,0-8.27,0-.03.3-.32.32-.32Z"/><path class="cls-2" d="M7.96,42.74s.44.42.45.45c.12.4.18,8.15-.19,8.34-.21.1-.64-.12-.71-.32-.14-.38-.12-7.63,0-8.01,0-.03.42-.45.45-.45Z"/><path class="cls-5" d="M68.12,13.27s-.08.29-.32.26c-4.31-2.08-9.1-3.08-13.83-3.62-.17-.16.58-1.66.71-1.94,4.67,1.27,9.24,2.86,13.44,5.3Z"/><path class="cls-4" d="M62.82,5.78c.7.27,1.48.83,2.26,1.03-.76.09,2.08,1.94,2.33,2.07.46.24.92-.05,1.36.39.15.19,1.04.84.9,1.74-.02.14-1.44,2.17-1.55,2.26-4.2-2.44-8.77-4.03-13.44-5.3,1.78-3.92,4.42-3.61,8.14-2.2Z"/><path class="cls-4" d="M68.77,9.27c-.44-.44-.9-.15-1.36-.39-.24-.13-3.08-1.98-2.33-2.07-.78-.2-1.56-.77-2.26-1.03,2.01.52,4.63,1.87,5.95,3.49Z"/><path class="cls-6" d="M82.6,55.02c-1.94,2.35-6.45,4.64-9.37,5.43-5.99,1.62-27.21,1.79-33.47.65-7.54-1.37-17.11-7.78-19.06-15.57-2.55-10.17,4.97-21.42,14.09-25.59-4.18,1.4-8.64,2.63-12.28,5.23-.5-.64-1.12,1.03-1.16-.06-.01-.41,1.22-.16-.78-.84,9.64-10.84,29.09-12.81,42.33-8.92,3.15.93,9.07,3.57,11.63,5.56,9.57,7.43,13.89,27.07,8.08,34.12Z"/><path class="cls-3" d="M42.1,43.79c1.63-.26,2.35,2.16,3.4,3.04h7.33c2.45-5.39,8.09-2.03,2.42,1.34,5.6,3.97-.83,7.09-2.42.63h-7.33c-2.27,6.82-7.76,2.72-2.42-.45-1.2-.77-3.68-4.12-.98-4.56Z"/><path class="cls-7" d="M59.46,21.16c-.86,1.04-3.73,1.69-5.04,1.94-2.29-.5-5.25.09-7.69-.13-2.44-.22-5.96-1.41-7.82-3.1.88-.5,1.99-.79,2.97-1.03,5.91-.09,11.89,1.15,17.58,2.33Z"/><path class="cls-5" d="M59.46,21.16c-5.69-1.17-11.67-2.42-17.58-2.33,4.53-1.13,10.31-1.34,14.8,0,.98.29,3.84,1.03,2.78,2.33Z"/><path class="cls-2" d="M38.91,19.86c1.86,1.69,5.38,2.88,7.82,3.1,2.44.22,5.4-.37,7.69.13-4.09.77-10.41.86-14.28-.78-1.26-.53-3.15-1.36-1.23-2.46Z"/><path class="cls-3" d="M71.37,49.73c-1.91.83-4.09.84-6.03.06-.86-.35-1.79-.88-2.66-1.72-2-1.91-2.46-4.25-2.58-5.37-.04-.35-.07-.71-.12-1.06-.15-1.15-.27-3.7,1.35-6.15.06-.09.12-.18.19-.27,3.21-4.5,9.97-4.41,13.19.07.02.03.05.07.07.1,1.94,2.78,1.68,5.71,1.56,6.74-.1.91-.49,4.7-3.68,6.88-.43.3-.87.53-1.3.72Z"/><path class="cls-7" d="M68.19,47.88c-.51-.02-2.5-.17-4.18-1.78-1.86-1.78-1.97-4.05-1.98-4.5-.1-.49-.5-2.82.96-5.04.05-.08.1-.15.16-.23,2.44-3.39,7.55-3.31,9.99.08.02.03.04.05.06.08,1.47,2.11,1.27,4.33,1.19,5.11-.07.69-.38,3.56-2.79,5.21-1.32.9-2.69,1.05-3.4,1.07Z"/><path class="cls-2" d="M68.18,46.4c-.4-.02-1.98-.14-3.31-1.41-1.48-1.42-1.56-3.22-1.57-3.57-.08-.39-.4-2.24.76-4,.05-.07.09-.14.14-.2,1.94-2.67,5.98-2.6,7.91.08.02.02.03.04.05.07,1.17,1.67,1.01,3.43.94,4.06-.06.55-.3,2.83-2.21,4.14-1.05.72-2.14.83-2.7.85Z"/><path class="cls-3" d="M68.88,41.42c-.14,0-.69-.05-1.15-.49-.51-.49-.54-1.11-.54-1.23-.03-.14-.14-.77.26-1.38.08-.13.18-.24.28-.33.66-.6,1.7-.56,2.32.07.07.07.13.15.19.23.4.58.35,1.19.33,1.4-.02.19-.1.98-.76,1.43-.36.25-.74.29-.93.29Z"/><path class="cls-6" d="M70.14,38.56c-.08,0-.37-.03-.62-.27-.28-.27-.29-.61-.3-.67-.01-.07-.07-.42.14-.75.27-.42.75-.45.81-.45.07.01.47.08.72.44.22.32.19.65.18.76-.01.1-.06.53-.42.78-.2.13-.4.16-.51.16Z"/><path class="cls-3" d="M33.54,49.27c-1.91.83-4.09.84-6.03.06-.86-.35-1.79-.88-2.66-1.72-2-1.91-2.46-4.25-2.58-5.37-.04-.35-.07-.71-.12-1.06-.15-1.15-.27-3.7,1.35-6.15.06-.09.12-.18.19-.27,3.21-4.5,9.97-4.41,13.19.07.02.03.05.07.07.1,1.94,2.78,1.68,5.71,1.56,6.74-.1.91-.49,4.7-3.68,6.88-.43.3-.87.53-1.3.72Z"/><path class="cls-7" d="M30.35,47.42c-.51-.02-2.5-.17-4.18-1.78-1.86-1.78-1.97-4.05-1.98-4.5-.1-.49-.5-2.82.96-5.04.05-.08.1-.15.16-.23,2.44-3.39,7.55-3.31,9.99.08.02.03.04.05.06.08,1.47,2.11,1.27,4.33,1.19,5.11-.07.69-.38,3.56-2.79,5.21-1.32.9-2.69,1.05-3.4,1.07Z"/><path class="cls-2" d="M30.35,45.94c-.4-.02-1.98-.14-3.31-1.41-1.48-1.42-1.56-3.22-1.57-3.57-.08-.39-.4-2.24.76-4,.05-.07.09-.14.14-.2,1.94-2.67,5.98-2.6,7.91.08.02.02.03.04.05.07,1.17,1.67,1.01,3.43.94,4.06-.06.55-.3,2.83-2.21,4.14-1.05.72-2.14.83-2.7.85Z"/><path class="cls-3" d="M31.05,40.96c-.14,0-.69-.05-1.15-.49-.51-.49-.54-1.11-.54-1.23-.03-.14-.14-.77.26-1.38.5-.77,1.38-.83,1.48-.83.14.02.86.15,1.32.81.4.58.35,1.19.33,1.4-.02.19-.1.98-.76,1.43-.36.25-.74.29-.93.29Z"/><path class="cls-6" d="M31.83,38.56c-.08,0-.37-.03-.62-.27-.28-.27-.29-.61-.3-.67-.01-.07-.07-.42.14-.75.27-.42.75-.45.81-.45.07.01.47.08.72.44.22.32.19.65.18.76-.01.1-.06.53-.42.78-.2.13-.4.16-.51.16Z"/><polygon class="cls-5" points="85.42 20.03 86.06 19.27 86.11 19.4 85.92 20.24 85.42 20.03"/><path class="cls-3" d="M4.79,18.96s-.15,7.25,5.36,9.43l-.3.61-6.19-4.67-.16-4.47,1.29-.9Z"/><polygon class="cls-3" points="14.49 60.77 14.49 60.77 14.49 60.77 14.49 60.77"/><path class="cls-8" d="M84.15,59.61s0,0-.02.02c-.18.13-1.63,1.07-9.64,4.17-8.7,3.37-22.4,3.24-22.9,3.1-.5-.14-11.74.79-21.9-.43-10-1.2-15.03-5.56-15.19-5.7t0,0h0"/><path class="cls-4" d="M13.89,62.53s4.18,3.43,6.3,4.13,6.81,2.42,13.72,2.58c6.92.16,18.03.05,23.07,0s12.68-1.43,15.22-2.14,7.7-2.66,9.63-3.75,2.6-1.44,2.6-1.44l-.23-2.38s-2.26,1.43-8.59,3.81c-9.06,3.41-15.38,3.25-23.41,3.58-8.75.37-19.83.14-24.25-.63-5.01-.88-9.55-2.77-11.42-4.03-2.25-1.51-2.21-1.67-2.21-1.67l-.44,1.92Z"/><path class="cls-4" d="M85.12,58.5s-1.1,1.38-4.54,2.83v.81l4.86-1.82,1.4-1.82h-1.71Z"/><path class="cls-3" d="M60.31,66.59s20.88-1.26,25.49-9.08l-.57-1.92-8.93,6.25-13.8,3.52-2.19,1.24Z"/><path class="cls-4" d="M22.99,67.56s8.86,3.16,32.64,1.76,30.17-8.24,30.17-8.24c0,0,1.88-1.85,2.15-3.81s-1.77,1.1-1.77,1.1l-6.28,4.98-7.69,2.32-12.13,2.15-14.92.59-20.02-1.82-2.15.97Z"/><path class="cls-3" d="M67.77,13.52s.19-.05.35-.25h.12l-.11.31-.29.15-.07-.21Z"/><path class="cls-3" d="M72.65,14.05s-.56.61-.9,1.1-.71-.13-.71-.13c0,0,.38-.98.46-1.02s.68-.37.7-.37.46.42.46.42Z"/><path class="cls-4" d="M10.41,56.61s1.5,6.3,8.55,9.49l-.2-1.88-4.07-2.39-2.45-3.54-1.37-1.96-.45.28Z"/><path class="cls-4" d="M88.29,54.44s.84,4.51-3.51,7.5"/></svg>